<?xml version="1.0" encoding="UTF-8" standalone="no"?>
<svg xmlns="http://www.w3.org/2000/svg" height="289.12" width="287.56" version="1.1">
  <path stroke-linejoin="round" fill="none" id="circle" d="m351.31,216.92c30.392,30.392,30.392,79.667,0,110.06-30.393,30.392-79.667,30.392-110.06,0s-30.393-79.667,0-110.06c30.391-30.392,79.666-30.392,110.06,0" transform="translate(-162.21875,-127.0625)" stroke="black" stroke-linecap="round" stroke-miterlimit="10" stroke-width="0.64850003"/>
  <line stroke-linejoin="round" x1="295.96" transform="translate(-162.21875,-127.0625)" y1="271.63" stroke="black" stroke-linecap="round" stroke-miterlimit="10" x2="398.1" y2="271.63" stroke-width="0.6485"/>
  <g>
    <line stroke-linejoin="round" y2="199.4" transform="translate(-162.21875,-127.0625)" x2="368.18" stroke="black" stroke-linecap="round" stroke-miterlimit="10" y1="271.63" x1="295.96" stroke-width="0.6485"/>
    <path d="m379.25,177.36h2.918c0.173,0,0.832,0,0.832-0.606,0-0.425-0.408-0.425-0.675-0.425h-4.942c-0.455,0-0.957,0.032-1.772,0.78-0.455,0.406-1.035,1.232-1.035,1.357,0,0.188,0.204,0.188,0.267,0.188,0.173,0,0.188-0.032,0.282-0.176,0.801-1.117,1.758-1.117,2.117-1.117h1.397l-1.554,5.038c-0.079,0.252-0.079,0.269-0.079,0.362,0,0.425,0.394,0.503,0.518,0.503,0.597,0,0.706-0.567,0.754-0.787" transform="translate(-162.21875,-127.0625)"/>
    <line stroke-width="0.8952" x1="373.89" transform="translate(-162.21875,-127.0625)" y1="186.29" stroke="black" stroke-miterlimit="10" x2="383.97" y2="186.29"/>
    <path d="m378.21,194.61c0.879,0.503,0.911,0.503,2.152,1.24,0.408,0.235,1.195,0.706,1.195,1.632,0,1.176-1.305,1.914-2.656,1.914-1.445,0-2.687-0.926-2.687-2.212,0.001-1.161,0.865-2.055,1.996-2.574m-0.763-2.172c-0.409-0.234-0.848-0.654-0.848-1.23,0-0.981,1.146-1.559,2.276-1.559,1.224,0,2.308,0.764,2.308,1.87,0,1.386-1.633,2.087-1.665,2.087-0.031,0-0.063-0.015-0.173-0.078l-1.898-1.09zm2.557,1.477c1.232-0.593,2.024-1.328,2.024-2.405,0-1.515-1.59-2.33-3.116-2.33-1.73,0-3.146,1.127-3.146,2.611,0,0.734,0.346,1.265,0.629,1.578,0.283,0.328,0.394,0.39,1.321,0.937-0.881,0.375-2.438,1.219-2.438,2.859,0,1.734,1.805,2.703,3.595,2.703,1.993,0,3.625-1.266,3.625-2.953,0-1.031-0.611-1.906-1.521-2.437-0.204-0.125-0.752-0.437-0.972-0.563h-0.001z" transform="translate(-162.21875,-127.0625)"/>
  </g>
  <line stroke-linejoin="round" x1="133.74" y1="144.56" stroke="black" stroke-linecap="round" stroke-miterlimit="10" x2="222.2" y2="93.494" stroke-width="0.6485"/>
  <path d="m234.49,80.99h2.484c0.147,0,0.708,0,0.708-0.517,0-0.362-0.347-0.362-0.574-0.362h-4.208c-0.388,0-0.815,0.027-1.51,0.665-0.388,0.345-0.882,1.049-0.882,1.155,0,0.16,0.174,0.16,0.228,0.16,0.146,0,0.16-0.027,0.24-0.15,0.682-0.951,1.497-0.951,1.803-0.951h1.189l-1.322,4.29c-0.067,0.215-0.067,0.229-0.067,0.308,0,0.362,0.335,0.429,0.44,0.429,0.508,0,0.602-0.483,0.643-0.67"/>
  <line stroke-width="0.762" y2="88.624" x2="241.79" stroke="black" stroke-miterlimit="10" y1="88.624" stroke-dasharray="none" x1="226.58"/>
  <path d="m231.03,91.5c0-0.36-0.027-0.375-0.4-0.375-0.853,0.864-2.066,0.878-2.613,0.878v0.479c0.327,0,1.227,0,1.976-0.405v6.815c0,0.441,0,0.614-1.363,0.614h-0.519v0.479c0.241-0.013,1.884-0.053,2.378-0.053,0.414,0,2.098,0.04,2.392,0.053v-0.479h-0.511c-1.34,0-1.34-0.174-1.34-0.614"/>
  <path d="m240.92,97.554h-0.451c-0.04,0.298-0.172,1.097-0.344,1.232-0.105,0.082-1.125,0.082-1.31,0.082h-2.436c1.39-1.244,1.853-1.618,2.646-2.246,0.979-0.789,1.894-1.618,1.894-2.888,0-1.618-1.417-2.608-3.127-2.608-1.657,0-2.779,1.153-2.779,2.372,0,0.675,0.582,0.742,0.718,0.742,0.326,0,0.72-0.231,0.72-0.719,0-0.243-0.092-0.718-0.766-0.718,0.412-0.914,1.314-1.197,1.938-1.197,1.327,0,2.02,1.042,2.02,2.123,0,1.161-0.833,2.082-1.262,2.562l-3.232,3.176c-0.135,0.12-0.135,0.146-0.135,0.52h5.506"/>
  <path fill="black" d="m257.18,153.93c-0.0805-0.0805-0.0961-0.17241-0.0456-0.2679,0.0165-0.0311,0.12256-0.15491,0.23584-0.27542,0.77259-0.822,1.263-1.8455,1.4228-2.9696,0.0436-0.30696,0.0519-0.96326,0.0125-0.98763-0.0143-0.008-0.10426,0.0356-0.19977,0.0988-0.20764,0.13741-0.37327,0.19704-0.59899,0.2156-0.6191,0.0509-1.14-0.36273-1.2375-0.98268-0.0701-0.44545,0.1258-0.91087,0.48297-1.1474,0.20124-0.1333,0.4308-0.18949,0.72578-0.17764,0.22277,0.008,0.2726,0.0203,0.43037,0.0974,0.58495,0.28634,0.91311,1.0751,0.91311,2.1949,0,1.2074-0.38106,2.3793-1.1062,3.4023-0.30529,0.43066-0.768,0.87461-0.91155,0.87461-0.0266,0-0.0825-0.0339-0.12383-0.0753z"/>
  <path fill="black" d="m249.03,135.12c-0.53799,0.0343-1.0493,0.16439-1.5312,0.40625-0.85345,0.42831-1.566,1.2333-2.0312,2.3125-0.51082,1.185-0.7099,2.3693-0.75,4.4062-0.0433,2.2024,0.16764,3.78,0.65625,5.0312,0.56181,1.4388,1.4154,2.303,2.6562,2.7188,0.2226,0.0746,0.65854,0.1682,0.875,0.1875,0.77888,0.0695,1.5933-0.0535,2.25-0.375,1.5346-0.75116,2.4577-2.4702,2.7188-5.0312,0.10794-1.0555,0.10783-3.0296,0-4.125-0.2286-2.3233-1.0202-4.0012-2.2812-4.8438-0.74864-0.50022-1.6658-0.74473-2.5625-0.6875zm0.28125,0.46875c1.1079,0,2.037,0.73772,2.4375,1.9375,0.16049,0.4807,0.27875,1.0871,0.34375,1.9688,0.0864,1.173,0.0599,5.0192-0.0312,6.125-0.0633,0.76763-0.13991,1.373-0.25,1.8125-0.18717,0.74728-0.54015,1.365-1,1.75-0.20769,0.1739-0.67668,0.40075-0.9375,0.46875-0.23729,0.0618-0.73783,0.0825-0.96875,0.0312-0.45723-0.10165-0.8962-0.34792-1.2188-0.6875-0.2246-0.23644-0.36506-0.41706-0.53125-0.75-0.33791-0.67706-0.4631-1.4232-0.5625-3.0312-0.0462-0.7415-0.046-4.8764,0-5.5312,0.0936-1.3354,0.22325-2.0421,0.53125-2.6562,0.4605-0.91826,1.2515-1.4375,2.1875-1.4375z"/>
  <path fill="black" d="m268.47,149.97c-0.2119-0.0652-0.38331-0.30649-0.38355-0.5398,0-0.12235,0.0785-0.38942,0.89748-3.0548,1.157-3.7646,1.4557-4.7638,1.4379-4.8101-0.0146-0.0381-0.11646-0.0408-1.1178-0.0291-0.97535,0.0114-1.1284,0.0186-1.3338,0.0643-0.8069,0.17867-1.4502,0.65356-2.0412,1.5068-0.23545,0.33991-0.28406,0.38098-0.45103,0.38098-0.10153,0-0.13967-0.0132-0.19292-0.0663-0.0548-0.0548-0.0637-0.0824-0.0513-0.15879,0.0191-0.11787,0.30469-0.617,0.57113-0.99832,0.79608-1.1392,1.4486-1.6958,2.246-1.9158l0.25449-0.0702h3.5832,3.5832l0.12886,0.0645c0.22202,0.11105,0.30642,0.32002,0.248,0.61405-0.0538,0.2717-0.2416,0.45122-0.55628,0.5322-0.13166,0.0339-0.44023,0.0395-2.1558,0.0395-1.5712,0-2.0076,0.006-2.0272,0.0323-0.0139,0.0177-0.36362,1.7642-0.7774,3.8811-0.41379,2.1169-0.77684,3.9149-0.80681,3.9957-0.0728,0.19609-0.17443,0.34014-0.30304,0.42924-0.19552,0.13552-0.50731,0.17808-0.75212,0.10276z"/>
  <g>
    <line stroke-linejoin="round" y2="183.17" transform="translate(-162.21875,-127.0625)" x2="347.03" stroke="black" stroke-linecap="round" stroke-miterlimit="10" y1="271.63" x1="295.96" stroke-width="0.6485"/>
    <path d="m355.91,157.34h2.918c0.173,0,0.831,0,0.831-0.606,0-0.425-0.407-0.425-0.675-0.425h-4.941c-0.456,0-0.957,0.032-1.772,0.78-0.456,0.406-1.036,1.233-1.036,1.357,0,0.188,0.204,0.188,0.268,0.188,0.172,0,0.188-0.032,0.282-0.176,0.8-1.117,1.757-1.117,2.117-1.117h1.396l-1.553,5.038c-0.079,0.252-0.079,0.268-0.079,0.362,0,0.426,0.393,0.503,0.518,0.503,0.596,0,0.706-0.567,0.754-0.787" transform="translate(-162.21875,-127.0625)"/>
    <line stroke-width="0.8952" x1="350.55" transform="translate(-162.21875,-127.0625)" y1="166.26" stroke="black" stroke-miterlimit="10" x2="360.63" y2="166.26"/>
    <path d="m355.55,179.37c-0.796,0-1.416-0.452-1.75-1.137-0.239-0.468-0.366-1.247-0.366-2.182,0-1.511,0.923-2.681,2.196-2.681,0.732,0,1.225,0.282,1.622,0.858,0.382,0.593,0.398,1.246,0.398,2.149,0,0.888,0,1.542-0.43,2.149-0.381,0.548-0.89,0.843-1.67,0.844m-2.11-4.942c0-1.28,0.109-2.434,0.705-3.386,0.534-0.841,1.381-1.42,2.385-1.42,0.471,0,1.099,0.128,1.412,0.562-0.392,0.032-0.722,0.3-0.722,0.758,0,0.395,0.267,0.742,0.737,0.742s0.754-0.318,0.754-0.78c0-0.923-0.659-1.751-2.212-1.751-2.26,0-4.566,2.064-4.566,5.423,0,4.045,1.914,5.264,3.64,5.264,1.914,0,3.578-1.449,3.578-3.492,0-1.979-1.585-3.445-3.421-3.445-1.256-0.001-1.946,0.824-2.29,1.525z" transform="translate(-162.21875,-127.0625)"/>
  </g>
  <g>
    <line stroke-linejoin="round" y2="169.65" transform="translate(-162.21875,-127.0625)" x2="295.96" stroke="black" stroke-linecap="round" stroke-miterlimit="10" y1="271.79" x1="295.96" stroke-width="0.6485"/>
    <path d="m296.33,137.32h3.405c0.202,0,0.97,0,0.97-0.723,0-0.507-0.476-0.507-0.787-0.507h-5.766c-0.531,0-1.116,0.037-2.068,0.91-0.531,0.473-1.208,1.438-1.208,1.583,0,0.218,0.238,0.218,0.311,0.218,0.201,0,0.22-0.037,0.33-0.202,0.933-1.281,2.05-1.281,2.471-1.281h1.629l-1.812,5.879c-0.092,0.294-0.092,0.313-0.092,0.423,0,0.496,0.458,0.588,0.604,0.588,0.696,0,0.824-0.661,0.878-0.919" transform="translate(-162.21875,-127.0625)"/>
    <line stroke-width="1.0449" x1="290.09" transform="translate(-162.21875,-127.0625)" y1="147.75" stroke="black" stroke-miterlimit="10" x2="301.85" y2="147.75"/>
    <path d="m297.02,152.96v6.668h-4.842m8.292,0.658v-0.656h-1.973v-8.104c0-0.381,0-0.509-0.408-0.509-0.222,0-0.295,0-0.48,0.255l-6.109,8.358v0.656h5.381v1.524c0,0.631,0,0.854-1.482,0.854h-0.495v0.656c0.916-0.037,2.086-0.073,2.746-0.073,0.677,0,1.849,0.037,2.764,0.073v-0.656h-0.48c-1.438,0-1.438-0.223-1.438-0.854v-1.524h1.974z" transform="translate(-162.21875,-127.0625)"/>
  </g>
  <g>
    <line stroke-linejoin="round" y2="183.33" transform="translate(-162.21875,-127.0625)" x2="244.88" stroke="black" stroke-linecap="round" stroke-miterlimit="10" y1="271.79" x1="295.96" stroke-width="0.6485"/>
    <path d="m237.23,157.34h2.918c0.172,0,0.832,0,0.832-0.606,0-0.425-0.408-0.425-0.675-0.425h-4.942c-0.456,0-0.957,0.032-1.772,0.78-0.456,0.406-1.036,1.233-1.036,1.357,0,0.188,0.204,0.188,0.267,0.188,0.172,0,0.188-0.032,0.282-0.176,0.8-1.117,1.757-1.117,2.117-1.117h1.397l-1.553,5.038c-0.079,0.252-0.079,0.268-0.079,0.362,0,0.426,0.393,0.503,0.518,0.503,0.596,0,0.706-0.567,0.754-0.787" transform="translate(-162.21875,-127.0625)"/>
    <line stroke-width="0.8952" x1="231.87" transform="translate(-162.21875,-127.0625)" y1="166.26" stroke="black" stroke-miterlimit="10" x2="241.95" y2="166.26"/>
    <path d="m236.68,174.3c1.22,0,2.097,0.85,2.097,2.531,0,1.949-1.128,2.53-2.036,2.53-0.626,0-2.004-0.176-2.661-1.125,0.736-0.032,0.908-0.562,0.908-0.898,0-0.514-0.376-0.883-0.861-0.883-0.438,0-0.876,0.27-0.876,0.919,0,1.489,1.631,2.456,3.528,2.456,2.18,0,3.687-1.453,3.687-3.015,0-1.219-1.008-2.437-2.739-2.796,1.652-0.594,2.25-1.765,2.25-2.718,0-1.234-1.431-2.158-3.177-2.158-1.747,0-3.083,0.84-3.083,2.083,0,0.529,0.34,0.824,0.805,0.824,0.48,0,0.789-0.356,0.789-0.789,0-0.449-0.296-0.774-0.756-0.805,0.547-0.674,1.627-0.843,2.207-0.843,0.704,0,1.69,0.338,1.69,1.678,0,0.646-0.219,1.354-0.626,1.831-0.517,0.585-0.955,0.616-1.737,0.662-0.392,0.031-0.422,0.031-0.5,0.046-0.031,0-0.156,0.035-0.156,0.226,0,0.243,0.141,0.243,0.407,0.243" transform="translate(-162.21875,-127.0625)"/>
  </g>
  <g>
    <line stroke-linejoin="round" y2="271.63" transform="translate(-162.21875,-127.0625)" x2="193.81" stroke="black" stroke-linecap="round" stroke-miterlimit="10" y1="271.63" x1="295.96" stroke-width="0.6485"/>
    <path d="m178.87,260.54h3.405c0.202,0,0.97,0,0.97-0.723,0-0.507-0.476-0.507-0.787-0.507h-5.766c-0.531,0-1.116,0.037-2.068,0.911-0.531,0.473-1.208,1.438-1.208,1.583,0,0.218,0.238,0.218,0.311,0.218,0.201,0,0.22-0.037,0.33-0.202,0.934-1.281,2.051-1.281,2.472-1.281h1.629l-1.812,5.879c-0.092,0.294-0.092,0.313-0.092,0.422,0,0.497,0.458,0.588,0.604,0.588,0.696,0,0.824-0.661,0.878-0.919" transform="translate(-162.21875,-127.0625)"/>
    <line stroke-width="1.0449" x1="172.63" transform="translate(-162.21875,-127.0625)" y1="270.97" stroke="black" stroke-miterlimit="10" x2="184.39" y2="270.97"/>
    <path d="m182.51,283.2h-0.617c-0.054,0.403-0.235,1.48-0.472,1.665-0.145,0.11-1.541,0.11-1.795,0.11h-3.337c1.904-1.7,2.539-2.211,3.627-3.07,1.342-1.078,2.594-2.21,2.594-3.946,0-2.211-1.928-3.564-4.255-3.564-2.255,0-3.782,1.579-3.782,3.249,0,0.925,0.798,1.017,0.984,1.017,0.445,0,0.984-0.316,0.984-0.984,0-0.334-0.131-0.984-1.103-0.984,0.566-1.252,1.81-1.64,2.669-1.64,1.829,0,2.781,1.428,2.781,2.908,0,1.59-1.135,2.852-1.721,3.51l-4.411,4.352c-0.183,0.164-0.183,0.201-0.183,0.712h7.492" transform="translate(-162.21875,-127.0625)"/>
  </g>
  <g>
    <line stroke-linejoin="round" y2="374.42" transform="translate(-162.21875,-127.0625)" x2="295.96" stroke="black" stroke-linecap="round" stroke-miterlimit="10" y1="272.28" x1="295.96" stroke-width="0.6485"/>
    <path d="m291.81,384.65c1.248,0,2.144,0.863,2.144,2.574,0,1.983-1.152,2.574-2.079,2.574-0.64,0-2.046-0.168-2.718-1.073,0.751-0.032,0.927-0.563,0.927-0.901,0-0.516-0.384-0.886-0.879-0.886-0.448,0-0.896,0.268-0.896,0.916,0,1.483,1.664,2.445,3.6,2.445,2.225,0,3.761-1.477,3.761-3.066,0-1.239-1.024-2.479-2.784-2.844,1.68-0.604,2.288-1.796,2.288-2.765,0-1.255-1.456-2.194-3.232-2.194s-3.136,0.867-3.136,2.152c0,0.545,0.351,0.851,0.83,0.851,0.495,0,0.814-0.367,0.814-0.814,0-0.463-0.32-0.798-0.817-0.83,0.56-0.744,1.664-0.93,2.256-0.93,0.72,0,1.728,0.352,1.728,1.736,0,0.668-0.224,1.4-0.64,1.894-0.528,0.605-0.976,0.637-1.776,0.684-0.4,0.032-0.432,0.032-0.512,0.048-0.032,0-0.161,0.032-0.161,0.207,0,0.222,0.145,0.222,0.417,0.222" transform="translate(-162.21875,-127.0625)"/>
    <path d="m302.07,384.22h2.968c0.176,0,0.846,0,0.846-0.631,0-0.442-0.415-0.442-0.686-0.442h-5.027c-0.463,0-0.973,0.032-1.803,0.794-0.463,0.413-1.053,1.253-1.053,1.38,0,0.19,0.207,0.19,0.271,0.19,0.175,0,0.191-0.032,0.287-0.176,0.814-1.117,1.788-1.117,2.155-1.117h1.42l-1.58,5.125c-0.08,0.257-0.08,0.272-0.08,0.368,0,0.433,0.399,0.513,0.526,0.513,0.606,0,0.718-0.576,0.766-0.801" transform="translate(-162.21875,-127.0625)"/>
    <line stroke-width="0.911" x1="287.48" transform="translate(-162.21875,-127.0625)" y1="393.31" stroke="black" stroke-miterlimit="10" x2="306.82" y2="393.31"/>
    <path d="m135.81,270.79v5.813h-4.222m7.229,0.572v-0.572h-1.72v-7.064c0-0.332,0-0.443-0.355-0.443-0.193,0-0.257,0-0.418,0.222l-5.325,7.286v0.572h4.691v1.329c0,0.55,0,0.745-1.292,0.745h-0.431v0.571c0.798-0.032,1.819-0.063,2.394-0.063,0.59,0,1.612,0.032,2.41,0.063v-0.571h-0.418c-1.254,0-1.254-0.195-1.254-0.745v-1.329h1.718z"/>
  </g>
</svg>

